<?xml version="1.0" encoding="UTF-8"?>
<svg width="19px" height="16px" viewBox="0 0 19 16" version="1.1" xmlns="http://www.w3.org/2000/svg" xmlns:xlink="http://www.w3.org/1999/xlink">
    <!-- Generator: Sketch 43.2 (39069) - http://www.bohemiancoding.com/sketch -->
    <title>photo-camera</title>
    <desc>Created with Sketch.</desc>
    <defs></defs>
    <g id="Page-1" stroke="none" stroke-width="1" fill="none" fill-rule="evenodd">
        <g id="Group-7" transform="translate(-24.000000, -8.000000)">
            <rect id="Rectangle-12" stroke="#FFFFFF" x="0.5" y="0.5" width="124" height="31"></rect>
            <g id="photo-camera" transform="translate(24.000000, 8.000000)" fill-rule="nonzero" fill="#FFFFFF">
                <path d="M18.2580792,3.18275677 C17.7632227,2.70203437 17.166324,2.46160582 16.466967,2.46160582 L14.2502859,2.46160582 L13.7456897,1.15401665 C13.6202858,0.839967585 13.3911413,0.569093952 13.0578055,0.341429428 C12.7246084,0.11386594 12.3832313,0 12.0335355,0 L6.96674174,0 C6.6170806,0 6.27563414,0.11386594 5.94243702,0.341429428 C5.6092399,0.569093952 5.38006073,0.839967585 5.25469155,1.15401665 L4.75002598,2.46160582 L2.53334488,2.46160582 C1.83391861,2.46160582 1.23698521,2.70203437 0.742128736,3.18275677 C0.247376245,3.66351285 0,4.24358588 0,4.9231106 L0,13.5384279 C0,14.2179863 0.247376245,14.7981267 0.742128736,15.278748 C1.23698521,15.7595714 1.83395327,16 2.53334488,16 L16.4667244,16 C17.1660813,16 17.7629454,15.7595714 18.2578365,15.278748 C18.7525544,14.7981267 18.9999999,14.2179863 18.9999999,13.5384279 L18.9999999,4.9231106 C19.0001386,4.24358588 18.752693,3.66351285 18.2580792,3.18275677 Z M12.632098,12.2741152 C11.7645654,13.1170801 10.7206425,13.5386636 9.50005196,13.5386636 C8.27946145,13.5386636 7.23560787,13.1170801 6.36800596,12.2741152 C5.50040406,11.4312849 5.06668976,10.4167296 5.06668976,9.23102182 C5.06668976,8.04494354 5.5005427,7.03072503 6.36800596,6.18772641 C7.23550389,5.34472779 8.27949611,4.92331267 9.50005196,4.92331267 C10.7206078,4.92331267 11.7645654,5.34482882 12.632098,6.18772641 C13.4996652,7.03062399 13.9334488,8.04494354 13.9334488,9.23102182 C13.9334488,10.4167296 13.4996999,11.4311839 12.632098,12.2741152 Z" id="Shape"></path>
                <path d="M9.5,7 C8.81133555,7 8.22251544,7.24450755 7.73350927,7.73358346 C7.24450309,8.22259855 7,8.81133819 7,9.50016722 C7,10.1887226 7.24450309,10.7775535 7.73350927,11.2665686 C8.22251544,11.7554925 8.81130515,12 9.5,12 C10.1885732,12 10.7774542,11.7554925 11.2664603,11.2665686 C11.7554665,10.7775535 12,10.188753 12,9.50016722 C12,8.8113686 11.7554665,8.22262896 11.2664603,7.73358346 C10.7774846,7.24453795 10.1885732,7 9.5,7 Z" id="Shape"></path>
            </g>
        </g>
    </g>
</svg>